<svg width="192" height="192" viewBox="0 0 192 192" fill="none" xmlns="http://www.w3.org/2000/svg">
<g clip-path="url(#clip0_1_37)">
<path fill-rule="evenodd" clip-rule="evenodd" d="M61.0995 14.6654C95.8759 3.24714 160.61 -18.0055 184.262 30.0367C190.169 42.0473 191.353 57.0329 187.594 72.2527C184.62 84.3183 178.728 96.563 169.077 110.791C159.701 124.62 148.151 138.531 132.731 154.577C120.698 167.097 110.07 176.849 97.3077 183.695C87.0648 189.19 76.519 192 66.5514 192C61.7053 192 57.0106 191.339 52.55 190.003C39.0579 185.967 26.7086 175.086 18.6547 160.142C11.2754 146.437 7.8886 130.956 5.34163 116.273C1.34909 93.2987 -0.922525 67.06 12.4181 46.5925C24.2718 28.3977 45.8865 19.6515 61.0995 14.6654ZM183.023 30.6427C159.894 -16.3113 95.9034 4.67959 61.5263 15.9739C46.5061 20.9048 25.1942 29.5133 13.5745 47.3501C0.481748 67.4182 2.75337 93.3262 6.7046 116.039C9.2378 130.611 12.5833 145.955 19.8662 159.481C27.7549 174.108 39.8014 184.755 52.9492 188.681C66.0695 192.606 81.9984 190.347 96.6469 182.482C109.258 175.72 119.804 166.051 131.74 153.613C147.104 137.636 158.6 123.78 167.948 110.02C177.503 95.9294 183.326 83.8225 186.259 71.9221C189.948 57.0191 188.792 42.364 183.023 30.6427ZM67.2811 35.3533C95.6005 24.968 135.843 14.3899 158.215 42.364C163.24 48.631 165.759 55.5591 165.759 63.0244C165.759 66.6468 165.167 70.407 163.983 74.2774C160.514 85.6406 153.506 96.3289 147.104 105.282C139.436 115.984 130.707 126.465 120.409 137.319C112.851 145.294 104.494 153.42 94.6093 158.888C86.8445 163.199 78.529 165.445 70.7504 165.445C67.5564 165.445 64.445 165.073 61.5125 164.301C51.2283 161.616 41.8252 153.916 35.7262 143.173C29.9577 132.939 27.5209 121.121 25.8963 110.888C25.7036 109.744 25.5384 108.587 25.3732 107.43C23.5146 94.1389 22.1654 74.7181 31.954 59.6636C38.6311 49.4023 49.8516 41.6754 67.2811 35.3533ZM117.174 25.822C100.323 25.822 82.4252 31.2626 67.7629 36.648C50.6225 42.8599 39.6086 50.4078 33.1104 60.4074C23.5696 75.09 24.9051 94.1664 26.7361 107.238C26.9013 108.394 27.0665 109.538 27.2455 110.681C28.8563 120.777 31.2656 132.457 36.924 142.484C42.844 152.924 51.9304 160.39 61.8567 162.965C71.604 165.513 83.3063 163.599 93.9347 157.69C103.654 152.305 111.929 144.261 119.418 136.369C129.675 125.57 138.362 115.13 145.989 104.469C152.322 95.6126 159.261 85.0483 162.675 73.878C166.158 62.4734 164.3 52.157 157.141 43.218C151.964 36.7444 145.783 32.392 138.982 29.6648C132.194 26.9377 124.787 25.822 117.174 25.822ZM73.4488 56.055C91.429 48.0525 123.342 42.791 134.039 54.1404C141.281 61.2614 144.241 66.6468 140.372 76.3296C137.068 84.5938 130.542 92.8717 125.311 99.5243L125.118 99.7722C119.941 106.342 114.297 113.353 108.088 120.074C103.379 125.157 98.1613 130.391 91.9109 134.082C86.5416 137.291 80.5941 138.999 75.0183 138.999C73.4764 138.999 71.962 138.862 70.4888 138.6C63.3573 137.291 56.9142 132.787 52.8115 126.204C48.6676 119.565 47.222 111.659 46.4372 105.502C46.3409 104.772 46.2583 104.028 46.1757 103.271C44.8265 90.3374 46.5749 80.3378 51.5036 72.721C57.1207 64.0161 66.7166 59.0438 73.4488 56.055ZM112.438 49.0305C99.7583 49.0305 84.6004 52.5978 74.0133 57.3084C63.5639 61.9501 56.7903 67.0876 52.6601 73.4647C47.9104 80.8198 46.2307 90.5164 47.5524 103.133C47.6212 103.863 47.7176 104.607 47.8002 105.337C48.5712 111.342 49.9755 119.069 53.9818 125.474C57.8779 131.727 63.9906 136.01 70.7367 137.25C77.166 138.421 84.6279 136.837 91.2087 132.898C97.3077 129.289 102.443 124.151 107.083 119.138C113.25 112.458 118.881 105.475 124.03 98.9183L124.223 98.6704C129.413 92.0866 135.856 83.8913 139.092 75.82C142.341 67.6936 140.937 62.8591 133.062 55.1184L133.048 55.1046C128.986 50.7797 121.318 49.0305 112.438 49.0305ZM105.706 67.0049C112.879 66.4127 117.009 67.5283 118.317 70.3932C120.534 75.2108 113.81 83.4323 106.015 91.3777L105.488 91.9129C105.399 92.002 105.311 92.0911 105.223 92.1801L104.692 92.7135C104.16 93.2463 103.625 93.7769 103.09 94.3041C101.176 96.1911 99.4279 98.3398 97.7482 100.42C95.2013 103.546 92.5717 106.769 89.2675 109.248C86.2387 111.521 82.2737 112.926 78.5152 112.926C75.2248 112.926 72.0996 111.852 69.9382 109.304C67.9006 106.921 66.9093 103.477 66.9782 99.056C67.0883 93.5466 68.8918 88.9325 71.425 85.1723C73.9445 81.4121 77.1798 78.5059 80.126 76.371C87.1887 71.2472 96.757 67.7487 105.706 67.0049ZM117.064 70.9717C116.059 68.7542 112.176 67.8589 105.816 68.3823C80.3325 70.4897 68.5752 87.6102 68.3549 99.0836C68.2861 103.147 69.1672 106.287 70.9845 108.408C75.1147 113.243 83.265 112.031 88.4415 108.147C91.608 105.778 94.1825 102.61 96.6744 99.5519C98.3816 97.4445 100.158 95.2683 102.126 93.3262C103.931 91.5519 106.871 88.6578 109.69 85.4625L110.134 84.9556C110.282 84.7859 110.429 84.6155 110.575 84.4444L111.011 83.9297C115.063 79.1107 118.421 73.9182 117.064 70.9717Z" fill="#575445" fill-opacity="0.14"/>
</g>
<defs>
<clipPath id="clip0_1_37">
<rect width="192" height="192" fill="white"/>
</clipPath>
</defs>
</svg>
