<svg width="39" height="39" xmlns="http://www.w3.org/2000/svg" fill="none">

 <g>
  <title>Layer 1</title>
  <path id="svg_1" fill="#575445" d="m19.2966,0c10.6395,0 19.2966,8.74832 19.2966,19.5c0,10.7517 -8.6571,19.5 -19.2966,19.5c-10.63952,0 -19.2966,-8.7483 -19.2966,-19.5c0,-10.75168 8.65708,-19.5 19.2966,-19.5zm0,2.20784c-9.43605,0 -17.11179,7.75664 -17.11179,17.29216c0,9.5355 7.67574,17.2922 17.11179,17.2922c9.4361,0 17.1118,-7.7567 17.1118,-17.2922c0,-9.53552 -7.6757,-17.29216 -17.1118,-17.29216zm1.0923,3.75363c0,3.40093 2.7386,6.16683 6.104,6.16683l0,2.2079c-2.416,0 -4.5871,-1.0563 -6.104,-2.7291l0,1.2285c0,3.4009 2.7386,6.1669 6.104,6.1669l0,2.2078c-2.416,0 -4.5871,-1.0563 -6.104,-2.729l0,1.2284c0,3.4009 2.7386,6.1669 6.104,6.1669l0,2.2078c-2.416,0 -4.5871,-1.0562 -6.104,-2.729l0,7.6828l-2.1848,0l0,-7.6813c-1.5154,1.6713 -3.6865,2.7275 -6.1026,2.7275l0,-2.2078c3.3655,0 6.1026,-2.766 6.1026,-6.1669l0,-1.2269c-1.5154,1.6712 -3.6865,2.7275 -6.1026,2.7275l0,-2.2078c3.3655,0 6.1026,-2.766 6.1026,-6.1669l0,-1.2285c-1.5154,1.6728 -3.6865,2.7291 -6.1026,2.7291l0,-2.2079c3.3655,0 6.1026,-2.7659 6.1026,-6.16683l2.1848,0zm103.0981,17.06893l2.518,4.6863l0,-4.6863l1.995,0l0,8.5039l-2.057,0l-2.456,-4.674l0,4.674l-1.995,0l0,-8.5039l1.995,0zm-42.1689,0.0014c0.5858,0 0.9859,0.4028 0.9859,0.9947l0,6.5128c0,0.592 -0.4001,0.9948 -0.9859,0.9948l-4.3255,0c-0.5857,0 -0.9844,-0.4028 -0.9844,-0.9948l0,-6.5128c0,-0.5919 0.3987,-0.9947 0.9844,-0.9947l4.3255,0zm16.9615,-0.0016c0.5858,0 0.9844,0.4044 0.9844,0.9963l0,7.5076l-2.1681,0l0,-2.1171l-1.9064,0l0,2.1171l-2.1696,0l0,-7.5076c0,-0.5919 0.3987,-0.9963 0.9844,-0.9963l4.2753,0zm19.9044,0.0016c0.586,0 0.986,0.4028 0.986,0.9947l0,6.5128c0,0.592 -0.4,0.9948 -0.986,0.9948l-4.325,0c-0.586,0 -0.985,-0.4028 -0.985,-0.9948l0,-6.5128c0,-0.5919 0.399,-0.9947 0.985,-0.9947l4.325,0zm-7.631,-0.0005l0,8.5023l-2.156,0l0,-8.5023l2.156,0zm-55.2492,-0.0001l1.272,2.4307l1.0589,-2.4307l2.3324,0l-2.3187,4.3956l2.2928,4.1067l-2.3932,0l-1.2461,-2.3432l-1.1974,2.3432l-2.2806,0l2.4434,-4.245l-2.3811,-4.2573l2.4176,0zm34.608,-0.0005c0.5112,0 0.9463,0.4167 0.9463,0.9579l0,3.8929c0,0.515 -0.4351,0.9563 -0.9463,0.9563l-0.0624,0l1.0346,2.6952l-2.1194,0l-1.0468,-2.6952l-0.922,0l0,2.6952l-2.1696,0l0,-8.5023l5.2856,0zm-38.2389,0.0003l0,1.8265l-3.3411,0l0,1.4868l2.8922,0l0,1.8127l-2.8922,0l0,1.5375l3.3411,0l0,1.8388l-5.4971,0l0,-8.5023l5.4971,0zm14.9916,-0.0003c0.5097,0 0.9464,0.4167 0.9464,0.9579l0,4.371c0,0.5043 -0.4367,0.9564 -0.9464,0.9564l-2.979,0l0,2.217l-2.1696,0l0,-8.5023l5.1486,0zm5.1387,0.0003l0,6.6635l2.6808,0l0,1.8388l-4.8367,0l0,-8.5023l2.1559,0zm34.9828,0l0,1.8388l-1.907,0l0,6.6635l-2.169,0l0,-6.6635l-1.908,0l0,-1.8388l5.984,0zm-26.7885,1.8396l-1.7071,0c-0.0502,0 -0.1126,0.063 -0.1126,0.1384l0,4.5725c0,0.063 0.0624,0.1138 0.1126,0.1138l1.7071,0c0.0745,0 0.1369,-0.0508 0.1369,-0.1138l0,-4.5725c0,-0.0754 -0.0624,-0.1384 -0.1369,-0.1384zm36.8655,0l-1.707,0c-0.05,0 -0.112,0.063 -0.112,0.1384l0,4.5725c0,0.063 0.062,0.1138 0.112,0.1138l1.707,0c0.075,0 0.137,-0.0508 0.137,-0.1138l0,-4.5725c0,-0.0754 -0.062,-0.1384 -0.137,-0.1384zm-20.0668,-0.1015l-1.3465,0c-0.1491,0 -0.2602,0.1138 -0.2602,0.2522l0,2.5568l1.9064,0l0,-2.5568c0,-0.1507 -0.1248,-0.2522 -0.2997,-0.2522zm-31.466,0.0881l-1.6447,0l0,2.6584l1.6447,0c0.0624,0 0.1126,-0.0631 0.1126,-0.1138l0,-2.4185c0,-0.063 -0.0502,-0.1261 -0.1126,-0.1261zm23.2594,0l-1.7938,0l0,2.2678l1.7938,0c0.0502,0 0.1126,-0.063 0.1126,-0.1137l0,-2.028c0,-0.063 -0.0624,-0.1261 -0.1126,-0.1261zm-9.646,-17.39114l0,2.69214l-2.7919,0l0,9.7554l-3.1753,0l0,-9.7554l-2.7918,0l0,-2.69214l8.759,0zm47.6324,-0.00016c0.748,0 1.387,0.60885 1.387,1.4022l0,5.6979c0,0.7549 -0.639,1.4007 -1.387,1.4007l-0.09,0l1.514,3.9467l-3.102,0l-1.532,-3.9467l-1.351,0l0,3.9467l-3.176,0l0,-12.4475l7.737,0zm-64.6099,0.00016l0,9.58934c0,0.0922 0.0913,0.166 0.1643,0.166l2.3172,0c0.1096,0 0.2008,-0.0738 0.2008,-0.166l0,-9.58934l3.1753,0l0,11.02684c0,0.8118 -0.6207,1.4207 -1.3875,1.4207l-6.2411,0c-0.747,0 -1.4043,-0.6089 -1.4043,-1.4207l0,-11.02684l3.1753,0zm-8.0176,0.00061c0.8581,0 1.4423,0.58886 1.4423,1.45601l0,9.53402c0,0.8671 -0.5842,1.456 -1.4423,1.456l-6.3308,0c-0.8581,0 -1.4423,-0.5889 -1.4423,-1.456l0,-9.53402c0,-0.86715 0.5842,-1.45601 1.4423,-1.45601l6.3308,0zm33.9781,-0.00107c1.3495,0 2.4997,1.12544 2.4997,2.52609l0,7.37691c0,1.4206 -1.1502,2.5445 -2.4997,2.5445l-6.6245,0l0,-12.4475l6.6245,0zm13.5634,0.00107c0.858,0 1.443,0.58886 1.443,1.45601l0,9.53402c0,0.8671 -0.585,1.456 -1.443,1.456l-6.3305,0c-0.858,0 -1.4423,-0.5889 -1.4423,-1.456l0,-9.53402c0,-0.86715 0.5843,-1.45601 1.4423,-1.45601l6.3305,0zm12.507,0c0.858,0 1.442,0.58886 1.442,1.45601l0,9.53402c0,0.8671 -0.584,1.456 -1.442,1.456l-6.331,0c-0.858,0 -1.442,-0.5889 -1.442,-1.456l0,-9.53402c0,-0.86715 0.584,-1.45601 1.442,-1.45601l6.331,0zm-27.6223,2.67413l-1.8973,0l0,7.0802l1.8973,0c0.5294,0 0.8946,-0.369 0.8946,-0.9041l0,-5.2736c0,-0.535 -0.3652,-0.9025 -0.8946,-0.9025zm-34.36,0.018l-2.4997,0c-0.073,0 -0.1643,0.0923 -0.1643,0.203l0,6.6942c0,0.0923 0.0913,0.1645 0.1643,0.1645l2.4997,0c0.1096,0 0.2009,-0.0722 0.2009,-0.1645l0,-6.6942c0,-0.1107 -0.0913,-0.203 -0.2009,-0.203zm47.5418,0l-2.4997,0c-0.073,0 -0.1643,0.0923 -0.1643,0.203l0,6.6942c0,0.0923 0.0913,0.1645 0.1643,0.1645l2.4997,0c0.1096,0 0.2009,-0.0722 0.2009,-0.1645l0,-6.6942c0,-0.1107 -0.0913,-0.203 -0.2009,-0.203zm12.5065,0l-2.5,0c-0.073,0 -0.164,0.0923 -0.164,0.203l0,6.6942c0,0.0923 0.091,0.1645 0.164,0.1645l2.5,0c0.11,0 0.201,-0.0722 0.201,-0.1645l0,-6.6942c0,-0.1107 -0.091,-0.203 -0.201,-0.203zm12.579,-0.0192l-2.627,0l0,3.3194l2.627,0c0.073,0 0.164,-0.0922 0.164,-0.166l0,-2.9689c0,-0.0923 -0.091,-0.1845 -0.164,-0.1845z" clip-rule="evenodd" fill-rule="evenodd"/>
 </g>
</svg>