<svg width="128" height="128" viewBox="0 0 128 128" fill="none" xmlns="http://www.w3.org/2000/svg">
<path fill-rule="evenodd" clip-rule="evenodd" d="M40.733 9.77695C63.9173 2.16476 107.073 -12.0036 122.842 20.0245C126.779 28.0315 127.568 38.0219 125.063 48.1684C123.08 56.2122 119.152 64.3753 112.718 73.8607C106.468 83.0798 98.7671 92.354 88.4874 103.051C80.4656 111.398 73.38 117.899 64.8718 122.463C58.0432 126.127 51.0126 128 44.3676 128C41.1368 128 38.0071 127.559 35.0333 126.669C26.0386 123.978 17.8057 116.724 12.4365 106.761C7.51691 97.6247 5.25906 87.3037 3.56109 77.5153C0.899395 62.1991 -0.615017 44.7067 8.27871 31.0617C16.1812 18.9318 30.591 13.101 40.733 9.77695ZM122.016 20.4285C106.596 -10.8742 63.9356 3.11973 41.0175 10.6493C31.0041 13.9366 16.7961 19.6755 9.04968 31.5667C0.321165 44.9454 1.83558 62.2175 4.46973 77.3592C6.15853 87.0742 8.38885 97.3033 13.2441 106.32C18.5033 116.072 26.5342 123.17 35.2995 125.787C44.0463 128.404 54.6656 126.898 64.4312 121.655C72.8385 117.146 79.8691 110.7 87.8266 102.409C98.0695 91.7572 105.733 82.5197 111.965 73.3465C118.335 63.953 122.218 55.8816 124.172 47.9481C126.632 38.0127 125.861 28.2427 122.016 20.4285ZM44.854 23.5689C63.7337 16.6454 90.5617 9.5933 105.476 28.2427C108.826 32.4207 110.506 37.0394 110.506 42.0163C110.506 44.4312 110.111 46.938 109.322 49.5183C107.009 57.0937 102.337 64.2192 98.0695 70.1878C92.9572 77.3225 87.1382 84.3103 80.2729 91.546C75.234 96.8626 69.6628 102.28 63.0729 105.926C57.8963 108.8 52.3527 110.296 47.167 110.296C45.0376 110.296 42.9633 110.048 41.0083 109.534C34.1522 107.744 27.8834 102.611 23.8175 95.4485C19.9718 88.626 18.3472 80.7475 17.2642 73.925C17.1357 73.1629 17.0256 72.3916 16.9154 71.6202C15.6764 62.7592 14.7769 49.8121 21.3026 39.7758C25.7541 32.9349 33.2344 27.7836 44.854 23.5689ZM78.116 17.2147C66.8818 17.2147 54.9501 20.8417 45.1753 24.432C33.7484 28.5733 26.4058 33.6052 22.0736 40.2716C15.7131 50.06 16.6034 62.7776 17.8241 71.4917C17.9342 72.263 18.0444 73.0251 18.1637 73.7873C19.2375 80.5179 20.8437 88.3046 24.616 94.9894C28.5626 101.95 34.6203 106.926 41.2378 108.644C47.736 110.342 55.5375 109.066 62.6231 105.127C69.103 101.536 74.6191 96.1739 79.6121 90.9124C86.4499 83.7134 92.2413 76.7532 97.3261 69.646C101.548 63.7418 106.174 56.6989 108.45 49.252C110.772 41.649 109.533 34.7714 104.76 28.812C101.309 24.4963 97.1884 21.5947 92.6544 19.7766C88.1295 17.9584 83.1916 17.2147 78.116 17.2147ZM48.9659 37.37C60.9527 32.035 82.2279 28.5274 89.3594 36.0936C94.1871 40.8409 96.1604 44.4312 93.5814 50.8864C91.3786 56.3959 87.0281 61.9145 83.5404 66.3495L83.4119 66.5148C79.9608 70.8948 76.1978 75.5686 72.0584 80.0496C68.9194 83.4379 65.4408 86.9272 61.2739 89.3881C57.6944 91.5276 53.7294 92.6662 50.0122 92.6662C48.9842 92.6662 47.9746 92.5744 46.9926 92.3999C42.2382 91.5276 37.9428 88.525 35.2077 84.1358C32.445 79.7099 31.4813 74.4392 30.9582 70.3347C30.8939 69.848 30.8388 69.3522 30.7838 68.8472C29.8843 60.2249 31.0499 53.5585 34.3358 48.4806C38.0805 42.6774 44.4777 39.3626 48.9659 37.37ZM74.9587 32.687C66.5055 32.687 56.4003 35.0652 49.3422 38.2056C42.3759 41.3 37.8602 44.7251 35.1067 48.9765C31.9402 53.8799 30.8205 60.3443 31.7016 68.7553C31.7475 69.242 31.8117 69.7378 31.8668 70.2245C32.3808 74.228 33.317 79.3793 35.9878 83.6491C38.5853 87.8179 42.6604 90.6737 47.1578 91.5001C51.444 92.2806 56.4186 91.2246 60.8058 88.5984C64.8718 86.1927 68.2953 82.7676 71.3884 79.4252C75.5002 74.9718 79.2541 70.3163 82.6868 65.9455L82.8153 65.7802C86.2755 61.3911 90.5709 55.9276 92.7278 50.5467C94.8939 45.1291 93.9577 41.9061 88.7077 36.7456L88.6985 36.7364C85.9909 33.8531 80.8787 32.687 74.9587 32.687ZM70.4705 44.67C75.2524 44.2751 78.0059 45.0189 78.8778 46.9288C80.3563 50.1405 75.8734 55.6216 70.6764 60.9185L70.3251 61.2753C70.2663 61.3347 70.2075 61.394 70.1487 61.4534L69.7947 61.809C69.4401 62.1642 69.0835 62.5179 68.7267 62.8694C67.4509 64.1274 66.2852 65.5599 65.1655 66.9464C63.4675 69.0308 61.7145 71.1795 59.5117 72.8323C57.4925 74.3474 54.8491 75.284 52.3435 75.284C50.1499 75.284 48.0664 74.5678 46.6254 72.869C45.2671 71.2805 44.6062 68.9849 44.6521 66.0373C44.7255 62.3644 45.9279 59.2883 47.6167 56.7815C49.2963 54.2747 51.4532 52.3372 53.4173 50.914C58.1258 47.4981 64.5047 45.1658 70.4705 44.67ZM78.0426 47.3145C77.3726 45.8361 74.7843 45.2393 70.544 45.5882C53.555 46.9931 45.7168 58.4068 45.5699 66.0557C45.524 68.7645 46.1115 70.8581 47.323 72.2722C50.0765 75.4952 55.51 74.6871 58.961 72.0977C61.072 70.5183 62.7883 68.4064 64.4496 66.3679C65.5877 64.963 66.7717 63.5122 68.0842 62.2175C69.2875 61.0346 71.2475 59.1052 73.1268 56.975L73.4227 56.6371C73.521 56.5239 73.619 56.4103 73.7166 56.2963L74.0076 55.9531C76.7087 52.7405 78.9472 49.2788 78.0426 47.3145Z" fill="#575445" fill-opacity="0.14"/>
</svg>
