<svg width="18" height="9" viewBox="0 0 18 9" fill="none" xmlns="http://www.w3.org/2000/svg">
<path d="M16.8118 3.39581L13.6826 0.307786C13.2531 -0.0925138 12.5782 -0.0925138 12.1487 0.2506C11.7192 0.650899 11.7192 1.27994 12.0874 1.68024L13.8667 3.45299H1.10443C0.490857 3.45299 0 3.91048 0 4.48234C0 5.05419 0.490857 5.51168 1.10443 5.51168H13.9281L12.1487 7.28443C11.7192 7.68473 11.7806 8.31377 12.2101 8.71407C12.3941 8.88563 12.7009 9 12.9464 9C13.2531 9 13.4986 8.88563 13.744 8.71407L16.8732 5.62605C17.4254 4.93982 17.4254 4.02485 16.8118 3.39581Z" fill="#575445"/>
</svg>
