<svg width="14" height="7" viewBox="0 0 14 7" fill="none" xmlns="http://www.w3.org/2000/svg">
<path d="M13.0759 2.64118L10.642 0.239389C10.308 -0.0719552 9.78305 -0.0719552 9.449 0.194911C9.11494 0.506255 9.11494 0.99551 9.40127 1.30685L10.7852 2.68566H0.858999C0.381778 2.68566 0 3.04148 0 3.48626C0 3.93104 0.381778 4.28686 0.858999 4.28686H10.8329L9.449 5.66567C9.11494 5.97701 9.16266 6.46627 9.49672 6.77761C9.63988 6.91104 9.87849 7 10.0694 7C10.308 7 10.4989 6.91104 10.6898 6.77761L13.1236 4.37582C13.5531 3.84208 13.5531 3.13044 13.0759 2.64118Z" fill="#575445"/>
</svg>
