<svg width="16" height="8" viewBox="0 0 16 8" fill="none" xmlns="http://www.w3.org/2000/svg">
<path d="M14.9439 3.0185L12.1623 0.273587C11.7806 -0.0822345 11.1806 -0.0822345 10.7989 0.222755C10.4171 0.578577 10.4171 1.13773 10.7443 1.49355L12.326 3.06933H0.981714C0.436317 3.06933 0 3.47598 0 3.9843C0 4.49262 0.436317 4.89927 0.981714 4.89927H12.3805L10.7989 6.47505C10.4171 6.83087 10.4716 7.39002 10.8534 7.74584C11.017 7.89834 11.2897 8 11.5079 8C11.7806 8 11.9987 7.89834 12.2169 7.74584L14.9984 5.00093C15.4893 4.39095 15.4893 3.57765 14.9439 3.0185Z" fill="#575445"/>
</svg>
